# xmcd CD database file
#
# Track frame offsets:
#	180
#	72526
#	125718
#	163109
#	225663
#	266264
#
# Disc length: 4095 seconds
#
# Revision: 0
# Processed by: cddbd v1.5.2PL0 Copyright (c) Steve Scherf et al.
# Submitted via: CDex 1.70beta2
#
DISCID=520ffd06
DTITLE=The Wad Barned Septet - The Sounds, They Show Us
DYEAR=1995
DGENRE=Jazz
TTITLE0=A Little Joy, A Little Sadness
TTITLE1=Godvin
TTITLE2=MTM
TTITLE3=Elvin's Ray
TTITLE4=Garrison Cap
TTITLE5=McCoy
EXTD=YEAR: 1995
EXTT0=
EXTT1=
EXTT2=
EXTT3=
EXTT4=
EXTT5=
PLAYORDER=
